# xmcd CD database file
#
# Track frame offsets:
#	150
#	28581
#	53911
#	72774
#	101878
#	133547
#	157279
#	180387
#
# Disc length: 2697 seconds
#
# Revision: 0
# Processed by: cddbd v1.4PL0 Copyright (c) Steve Scherf et al.
# Submitted via: CDex 1.50
#
DISCID=6c0a8708
DTITLE=Kenny Drew Trio - Dark Beauty
DYEAR=1974
DGENRE=Jazz
TTITLE0=Ran Away
TTITLE1=Dark Beauty
TTITLE2=Summer Night
TTITLE3=All Blues
TTITLE4=It Could Happen To You
TTITLE5=Love Letters
TTITLE6=Silk Bossa
TTITLE7=Blues Inn
EXTD=YEAR: 1974
EXTT0=
EXTT1=
EXTT2=
EXTT3=
EXTT4=
EXTT5=
EXTT6=
EXTT7=
PLAYORDER=
